<?xml version="1.0" standalone="no"?>
<!DOCTYPE svg PUBLIC "-//W3C//DTD SVG 20010904//EN"
 "http://www.w3.org/TR/2001/REC-SVG-20010904/DTD/svg10.dtd">
<svg version="1.0" xmlns="http://www.w3.org/2000/svg"
 width="1024.000000pt" height="1024.000000pt" viewBox="0 0 1024.000000 1024.000000"
 preserveAspectRatio="xMidYMid meet">

<g transform="translate(0.000000,1024.000000) scale(0.100000,-0.100000)"
fill="#000000" stroke="none">
<path d="M4885 9690 c-1280 -88 -2452 -677 -3254 -1634 -487 -580 -823 -1273
-976 -2006 -142 -680 -122 -1404 56 -2080 298 -1128 1077 -2164 2089 -2776
608 -367 1281 -585 1997 -645 213 -18 735 -7 928 20 749 103 1370 333 1979
735 483 319 943 776 1275 1266 465 686 720 1428 782 2275 14 198 6 608 -16
795 -108 920 -448 1703 -1056 2435 -103 124 -393 415 -514 516 -736 617 -1608
984 -2570 1084 -185 19 -546 27 -720 15z m-19 -1765 c-76 -442 -77 -460 -83
-969 l-5 -439 -24 -24 c-30 -30 -40 -29 -74 7 -24 25 -29 43 -39 127 -35 289
-73 454 -136 590 -144 311 -420 484 -640 402 -127 -47 -218 -173 -271 -372
-23 -91 -314 -1706 -308 -1717 6 -12 323 8 384 24 185 49 326 163 412 331 43
84 87 201 102 270 4 17 16 36 28 44 18 11 24 10 47 -7 14 -10 27 -30 29 -44 2
-14 -11 -97 -28 -184 -60 -308 -169 -1013 -191 -1244 -15 -155 -23 -172 -87
-168 l-47 3 -2 45 c-9 167 -27 330 -44 392 -67 241 -223 338 -540 338 -63 0
-91 -4 -94 -12 -4 -11 -180 -1003 -229 -1293 -30 -175 -66 -489 -66 -574 0
-274 112 -432 347 -487 144 -34 392 -2 572 75 249 106 539 388 675 658 72 143
106 275 107 409 0 105 -16 146 -88 210 -55 49 -57 53 -45 78 18 41 54 49 123
30 75 -21 135 -73 176 -151 43 -83 57 -151 57 -283 -1 -186 -42 -382 -121
-580 -51 -129 -269 -599 -308 -666 -25 -42 -28 -44 -73 -44 -26 0 -99 9 -162
21 -174 30 -452 37 -1587 41 l-1023 3 -17 32 c-16 30 -16 33 0 51 12 13 38 22
77 26 118 14 203 52 289 132 105 97 190 249 240 426 44 157 164 791 296 1568
42 245 119 697 171 1005 52 308 127 747 165 975 52 303 71 443 72 517 2 100 1
103 -26 130 -27 27 -30 28 -140 28 -100 0 -122 -4 -199 -31 -231 -83 -429
-274 -520 -505 -52 -130 -76 -312 -58 -435 29 -203 162 -331 354 -342 44 -2
87 -9 93 -14 7 -6 13 -24 13 -40 0 -25 -6 -32 -45 -49 -264 -117 -637 -12
-797 224 -188 277 -165 669 58 958 146 191 428 340 751 398 191 34 372 43 738
37 366 -7 522 -16 795 -47 410 -45 630 -14 830 116 71 46 85 52 102 42 15 -9
18 -19 14 -42z m2439 25 c526 -46 942 -216 1230 -505 149 -148 249 -313 313
-515 51 -160 66 -271 66 -490 1 -355 -60 -623 -209 -925 -254 -516 -835 -895
-1495 -975 -116 -14 -328 -12 -425 4 -44 8 -80 13 -81 12 -2 -4 -129 -721
-159 -896 -18 -113 -39 -260 -44 -326 -30 -343 71 -486 360 -510 72 -6 82 -10
104 -36 32 -38 32 -62 -2 -86 -24 -16 -53 -20 -198 -25 -226 -9 -408 -36 -549
-85 -189 -64 -215 -82 -622 -426 -246 -208 -443 -312 -657 -346 -106 -17 -284
-8 -360 19 -236 83 -383 264 -411 507 -6 46 -4 52 22 77 45 43 79 30 142 -54
93 -126 213 -208 355 -244 131 -33 312 -11 454 55 136 64 285 199 376 339 58
90 134 249 169 356 40 124 112 430 150 645 65 362 254 1440 376 2144 125 728
152 865 195 991 61 182 176 364 335 528 129 135 244 223 375 287 127 62 150
68 176 45 24 -23 19 -43 -31 -115 -72 -106 -113 -209 -149 -373 -20 -92 -132
-773 -256 -1557 -96 -605 -105 -663 -111 -693 l-6 -27 86 0 c47 0 135 7 196
15 346 49 573 189 775 480 124 178 202 351 259 576 47 185 66 345 66 564 0
490 -111 828 -356 1085 -125 131 -293 228 -470 272 -112 27 -330 30 -440 5
-340 -77 -608 -225 -827 -457 -227 -242 -354 -520 -402 -888 -39 -292 2 -510
118 -626 59 -59 113 -85 194 -95 55 -6 70 -13 90 -36 32 -36 26 -56 -22 -80
-34 -17 -59 -20 -180 -19 -124 0 -149 3 -220 27 -150 50 -311 168 -411 300
-179 238 -240 604 -153 917 29 104 115 282 191 392 75 110 212 256 311 332
252 193 607 337 987 402 253 42 531 54 775 34z"/>
</g>
</svg>
